#N canvas 66 3 1115 704 10;
#X obj 3 -476 cnv 15 1100 270 empty empty Primary_Controls 20 12 0
14 -1 -262144 0;
#X obj 11 -446 cnv 15 130 230 empty empty Speed 20 12 0 14 -261234
-66577 0;
#X obj 22 -388 ctlin 1;
#X obj 22 -364 * 128;
#X obj 78 -388 ctlin 2;
#X obj 22 -328 +;
#X obj 78 -365 t b i;
#X text 24 -405 MSB;
#X text 80 -405 LSB;
#X obj 22 -301 / 16383;
#X floatatom 22 -247 5 0 0 0 - - -;
#X text 59 -281 controller;
#X text 59 -268 output value;
#X text 59 -253 0 - 1;
#X obj 147 -446 cnv 15 130 230 empty empty Glide 20 12 0 14 -261682
-66577 0;
#X obj 156 -366 * 128;
#X obj 156 -330 +;
#X obj 212 -367 t b i;
#X text 158 -407 MSB;
#X text 214 -407 LSB;
#X obj 156 -303 / 16383;
#X floatatom 156 -249 5 0 0 0 - - -;
#X text 194 -282 controller;
#X text 194 -270 output value;
#X text 194 -256 0 - 1;
#X obj 156 -390 ctlin 70;
#X obj 212 -390 ctlin 71;
#X obj 283 -446 cnv 15 130 230 empty empty Pitch 20 12 0 14 -262130
-66577 0;
#X obj 292 -367 * 128;
#X obj 292 -331 +;
#X obj 348 -368 t b i;
#X text 294 -408 MSB;
#X text 350 -408 LSB;
#X obj 292 -304 / 16383;
#X floatatom 292 -250 5 0 0 0 - - -;
#X text 329 -283 controller;
#X text 329 -271 output value;
#X text 329 -257 0 - 1;
#X text 22 -425 (Bipolar CV);
#X text 294 -426 (1V/Oct CV);
#X obj 420 -446 cnv 15 130 230 empty empty Mix 20 12 0 14 -204786 -66577
0;
#X obj 428 -368 * 128;
#X obj 428 -332 +;
#X obj 484 -369 t b i;
#X text 430 -409 MSB;
#X text 486 -409 LSB;
#X obj 428 -305 / 16383;
#X floatatom 428 -251 5 0 0 0 - - -;
#X text 463 -285 controller;
#X text 463 -273 output value;
#X text 463 -259 0 - 1;
#X obj 292 -391 ctlin 15;
#X obj 348 -391 ctlin 16;
#X obj 428 -392 ctlin 8;
#X text 429 -427 (Bipolar CV);
#X obj 484 -392 ctlin 38;
#X obj 556 -446 cnv 15 130 230 empty empty Grain_Size 20 12 0 14 -204800
-66577 0;
#X obj 565 -365 * 128;
#X obj 565 -329 +;
#X obj 621 -366 t b i;
#X text 567 -406 MSB;
#X text 623 -406 LSB;
#X obj 565 -302 / 16383;
#X floatatom 565 -248 5 0 0 0 - - -;
#X text 602 -282 controller;
#X text 602 -270 output value;
#X text 602 -256 0 - 1;
#X obj 691 -446 cnv 15 130 230 empty empty Grain_Rate 20 12 0 14 -203904
-66577 0;
#X obj 702 -367 * 128;
#X obj 702 -331 +;
#X obj 758 -368 t b i;
#X text 704 -408 MSB;
#X text 760 -408 LSB;
#X obj 702 -304 / 16383;
#X floatatom 702 -250 5 0 0 0 - - -;
#X text 741 -284 controller;
#X text 741 -272 output value;
#X text 741 -258 0 - 1;
#X obj 827 -446 cnv 15 130 230 empty empty Loop_Start 20 12 0 14 -232576
-66577 0;
#X obj 837 -367 * 128;
#X obj 837 -331 +;
#X obj 893 -368 t b i;
#X text 839 -408 MSB;
#X text 895 -408 LSB;
#X obj 837 -304 / 16383;
#X floatatom 837 -250 5 0 0 0 - - -;
#X text 875 -284 controller;
#X text 875 -272 output value;
#X text 875 -258 0 - 1;
#X obj 963 -446 cnv 15 130 230 empty empty Loop_Size 20 12 0 14 -228856
-66577 0;
#X obj 974 -368 * 128;
#X obj 974 -332 +;
#X obj 1030 -369 t b i;
#X text 976 -409 MSB;
#X text 1032 -409 LSB;
#X obj 974 -305 / 16383;
#X floatatom 974 -251 5 0 0 0 - - -;
#X text 1015 -285 controller;
#X text 1015 -273 output value;
#X text 1015 -259 0 - 1;
#X obj 565 -389 ctlin 4;
#X obj 621 -389 ctlin 34;
#X obj 702 -391 ctlin 5;
#X obj 758 -391 ctlin 35;
#X obj 837 -391 ctlin 9;
#X obj 893 -391 ctlin 10;
#X obj 974 -392 ctlin 11;
#X obj 1030 -392 ctlin 12;
#X obj 4 78 cnv 15 1100 270 empty empty Secondary_Controls 20 12 0
14 -128992 -262144 0;
#X obj 12 108 cnv 15 130 230 empty empty Speed 20 12 0 14 -261234 -66577
0;
#X obj 23 190 * 128;
#X obj 23 226 +;
#X obj 79 189 t b i;
#X text 25 149 MSB;
#X text 81 149 LSB;
#X obj 23 253 / 16383;
#X floatatom 23 307 5 0 0 0 - - -;
#X text 60 273 controller;
#X text 60 286 output value;
#X text 60 301 0 - 1;
#X obj 148 108 cnv 15 130 230 empty empty Glide 20 12 0 14 -261682
-66577 0;
#X obj 157 188 * 128;
#X obj 157 224 +;
#X obj 213 187 t b i;
#X text 159 147 MSB;
#X text 215 147 LSB;
#X obj 157 251 / 16383;
#X floatatom 157 305 5 0 0 0 - - -;
#X text 195 272 controller;
#X text 195 284 output value;
#X text 195 298 0 - 1;
#X obj 284 108 cnv 15 130 230 empty empty Pitch 20 12 0 14 -262130
-66577 0;
#X obj 293 187 * 128;
#X obj 293 223 +;
#X obj 349 186 t b i;
#X text 295 146 MSB;
#X text 351 146 LSB;
#X obj 293 250 / 16383;
#X floatatom 293 304 5 0 0 0 - - -;
#X text 330 271 controller;
#X text 330 283 output value;
#X text 330 297 0 - 1;
#X text 23 129 (Bipolar CV);
#X text 295 128 (1V/Oct CV);
#X obj 421 108 cnv 15 130 230 empty empty Mix 20 12 0 14 -204786 -66577
0;
#X obj 429 186 * 128;
#X obj 429 222 +;
#X obj 485 185 t b i;
#X text 431 145 MSB;
#X text 487 145 LSB;
#X obj 429 249 / 16383;
#X floatatom 429 303 5 0 0 0 - - -;
#X text 464 269 controller;
#X text 464 281 output value;
#X text 464 295 0 - 1;
#X text 430 127 (Bipolar CV);
#X obj 557 108 cnv 15 130 230 empty empty Grain_Size 20 12 0 14 -204800
-66577 0;
#X obj 566 189 * 128;
#X obj 566 225 +;
#X obj 622 188 t b i;
#X text 568 148 MSB;
#X text 624 148 LSB;
#X obj 566 252 / 16383;
#X floatatom 566 306 5 0 0 0 - - -;
#X text 603 272 controller;
#X text 603 284 output value;
#X text 603 298 0 - 1;
#X obj 692 108 cnv 15 130 230 empty empty Grain_Rate 20 12 0 14 -203904
-66577 0;
#X obj 703 187 * 128;
#X obj 703 223 +;
#X obj 759 186 t b i;
#X text 705 146 MSB;
#X text 761 146 LSB;
#X obj 703 250 / 16383;
#X floatatom 703 304 5 0 0 0 - - -;
#X text 742 270 controller;
#X text 742 282 output value;
#X text 742 296 0 - 1;
#X obj 828 108 cnv 15 130 230 empty empty Loop_Start 20 12 0 14 -232576
-66577 0;
#X obj 838 187 * 128;
#X obj 838 223 +;
#X obj 894 186 t b i;
#X text 840 146 MSB;
#X text 896 146 LSB;
#X obj 838 250 / 16383;
#X floatatom 838 304 5 0 0 0 - - -;
#X text 876 270 controller;
#X text 876 282 output value;
#X text 876 296 0 - 1;
#X obj 964 108 cnv 15 130 230 empty empty Loop_Size 20 12 0 14 -228856
-66577 0;
#X obj 975 186 * 128;
#X obj 975 222 +;
#X obj 1031 185 t b i;
#X text 977 145 MSB;
#X text 1033 145 LSB;
#X obj 975 249 / 16383;
#X floatatom 975 303 5 0 0 0 - - -;
#X text 1016 269 controller;
#X text 1016 281 output value;
#X text 1016 295 0 - 1;
#X obj 23 166 ctlin 40;
#X obj 79 166 ctlin 41;
#X obj 157 164 ctlin 42;
#X obj 213 164 ctlin 43;
#X obj 293 163 ctlin 44;
#X obj 349 163 ctlin 45;
#X obj 429 162 ctlin 46;
#X obj 485 162 ctlin 47;
#X obj 566 165 ctlin 48;
#X obj 622 165 ctlin 49;
#X obj 703 163 ctlin 50;
#X obj 759 163 ctlin 51;
#X obj 838 163 ctlin 52;
#X obj 894 163 ctlin 53;
#X obj 975 162 ctlin 54;
#X obj 1031 162 ctlin 55;
#X obj 4 -181 cnv 15 250 230 empty empty Utility_CC 20 12 0 14 -228856
-66577 0;
#X obj 12 -154 ctlin 23;
#X obj 12 -130 sel 1 2 3 12 23 24;
#X obj 74 25 bng 15 250 50 0 empty empty empty 17 7 0 10 -262144 -1
-1;
#X msg 12 -104 1;
#X msg 18 -83 0;
#X obj 12 25 tgl 15 0 empty empty empty 17 7 0 10 -262144 -1 -1 0 1
;
#X text 18 -4 Freeze;
#X text 18 8 toggle;
#X text 77 3 Next;
#X obj 126 25 bng 15 250 50 0 empty empty empty 17 7 0 10 -262144 -1
-1;
#X text 127 3 Recall;
#X obj 129 -130 cnv 15 125 100 empty empty REQUIRED 20 12 0 14 -162280
-262144 0;
#X obj 137 -92 bng 15 250 50 0 empty empty empty 17 7 0 10 -262144
-1 -1;
#X msg 137 -69 [ \; pd quit;
#X text 159 -94 from Patch.;
#X text 159 -109 Do NOT remove;
#X obj 537 40 dac~;
#X obj 583 -51 loadbang;
#X obj 583 -28 delay 100;
#X msg 583 -4 \; pd dsp 1;
#X obj 819 -181 cnv 15 250 230 empty empty empty 20 12 0 14 -228856
-66577 0;
#X text 823 -180 Qu-Bit Electronix;
#X text 823 -161 Pd-Vanilla Template;
#X text 825 -21 contact@qubitelectronix.com;
#X text 848 -116 Andrew Ikenberry;
#X text 848 -128 Paul Batchelor;
#X text 824 -140 By: Jason H. J Lim;
#X text 824 -35 Send your Pd instruments to:;
#X text 825 10 To be featured on:;
#X text 826 25 www.qubitelectronix.com;
#X text 568 39 Audio Output;
#N canvas 642 35 531 592 zdosc1 0;
#N canvas 0 0 518 484 waveshape 0;
#X obj 108 23 hsl 128 15 0 127 0 0 empty empty empty -2 -8 0 10 -262144
-1 -1 12700 1;
#X floatatom 115 62 5 0 0 0 - - -;
#X obj 100 348 vsl 15 30 0 1 0 0 empty empty empty 0 -9 0 10 -262144
-1 -1 0 1;
#X obj 151 349 vsl 15 30 0 1 0 0 empty empty empty 0 -9 0 10 -262144
-1 -1 2900 1;
#X obj 210 339 vsl 15 30 0 1 0 0 empty empty empty 0 -9 0 10 -262144
-1 -1 2809 1;
#X obj 279 341 vsl 15 30 0 1 0 0 empty empty empty 0 -9 0 10 -262144
-1 -1 2900 1;
#X obj 43 93 >= 0;
#X obj 52 119 +;
#X obj 50 168 sel 1;
#X obj 53 223 *;
#X obj 52 143 == 2;
#X msg 33 190 1;
#X msg 74 189 0;
#X obj 55 251 * -1;
#X obj 115 90 >= 0;
#X obj 127 118 +;
#X obj 125 167 sel 1;
#X obj 128 141 == 2;
#X msg 108 189 1;
#X msg 149 188 0;
#X obj 111 280 *;
#X obj 180 205 abs;
#X obj 170 227 - 1;
#X obj 157 252 abs;
#X obj 113 41 t f b;
#X obj 263 117 +;
#X obj 261 166 sel 1;
#X obj 262 140 == 2;
#X msg 244 188 1;
#X msg 285 187 0;
#X obj 242 285 *;
#X obj 223 212 abs;
#X obj 223 236 - 1;
#X obj 222 261 abs;
#X obj 352 116 +;
#X obj 350 165 sel 1;
#X obj 350 140 == 2;
#X msg 333 187 1;
#X msg 374 186 0;
#X obj 381 87 <= 127;
#X obj 324 290 *;
#X obj 106 2 inlet;
#X obj 98 413 outlet;
#X obj 151 411 outlet;
#X obj 209 411 outlet;
#X obj 269 412 outlet;
#X obj 13 7 loadbang;
#X msg 17 31 0;
#X obj 411 237 vsl 15 30 0 1 0 0 empty empty empty 0 -9 0 10 -262144
-1 -1 2900 1;
#X obj 334 416 outlet;
#X obj 77 96 < 32;
#X obj 156 89 < 64;
#X obj 251 89 >= 32;
#X obj 340 88 >= 64;
#X obj 292 88 < 96;
#X obj 225 131 - 32;
#X obj 227 163 / 32;
#X obj 187 138 - 32;
#X obj 181 172 / 32;
#X obj 15 132 - 32;
#X obj 60 272 / 32;
#X obj 313 157 / 32;
#X obj 311 121 - 64;
#X obj 439 114 +;
#X obj 437 163 sel 1;
#X obj 437 138 == 2;
#X msg 420 185 1;
#X msg 461 184 0;
#X obj 468 85 <= 127;
#X obj 412 213 *;
#X obj 427 86 >= 96;
#X obj 398 119 - 96;
#X obj 400 155 / 31;
#X obj 411 275 - 1;
#X obj 410 295 * -1;
#X obj 409 317 * 9;
#X obj 408 337 + 1;
#X obj 407 359 / 20;
#X msg 156 0 0;
#X msg 188 1 32;
#X msg 220 2 64;
#X msg 251 3 96;
#X msg 281 3 127;
#X text 95 432 rev saw;
#X text 150 433 triangle;
#X text 218 433 saw;
#X text 275 435 square;
#X text 341 437 pulse;
#X connect 0 0 24 0;
#X connect 1 0 6 0;
#X connect 1 0 14 0;
#X connect 1 0 39 0;
#X connect 1 0 50 0;
#X connect 1 0 51 0;
#X connect 1 0 52 0;
#X connect 1 0 53 0;
#X connect 1 0 54 0;
#X connect 1 0 57 0;
#X connect 1 0 59 0;
#X connect 1 0 62 0;
#X connect 1 0 70 0;
#X connect 1 0 68 0;
#X connect 1 0 71 0;
#X connect 2 0 42 0;
#X connect 3 0 43 0;
#X connect 4 0 44 0;
#X connect 5 0 45 0;
#X connect 6 0 7 0;
#X connect 7 0 10 0;
#X connect 8 0 11 0;
#X connect 8 1 12 0;
#X connect 9 0 13 0;
#X connect 10 0 8 0;
#X connect 11 0 9 1;
#X connect 12 0 9 1;
#X connect 13 0 60 0;
#X connect 14 0 15 0;
#X connect 15 0 17 0;
#X connect 16 0 18 0;
#X connect 16 1 19 0;
#X connect 17 0 16 0;
#X connect 18 0 20 1;
#X connect 19 0 20 1;
#X connect 20 0 3 0;
#X connect 21 0 22 0;
#X connect 22 0 23 0;
#X connect 23 0 20 0;
#X connect 24 0 1 0;
#X connect 24 1 1 0;
#X connect 25 0 27 0;
#X connect 26 0 28 0;
#X connect 26 1 29 0;
#X connect 27 0 26 0;
#X connect 28 0 30 1;
#X connect 29 0 30 1;
#X connect 30 0 4 0;
#X connect 31 0 32 0;
#X connect 32 0 33 0;
#X connect 33 0 30 0;
#X connect 34 0 36 0;
#X connect 35 0 37 0;
#X connect 35 1 38 0;
#X connect 36 0 35 0;
#X connect 37 0 40 1;
#X connect 38 0 40 1;
#X connect 39 0 34 1;
#X connect 40 0 5 0;
#X connect 41 0 0 0;
#X connect 46 0 47 0;
#X connect 47 0 1 0;
#X connect 48 0 73 0;
#X connect 50 0 7 1;
#X connect 51 0 15 1;
#X connect 52 0 25 0;
#X connect 53 0 34 0;
#X connect 54 0 25 1;
#X connect 55 0 56 0;
#X connect 56 0 31 0;
#X connect 57 0 58 0;
#X connect 58 0 21 0;
#X connect 59 0 9 0;
#X connect 59 0 55 0;
#X connect 60 0 2 0;
#X connect 61 0 40 0;
#X connect 62 0 61 0;
#X connect 63 0 65 0;
#X connect 64 0 66 0;
#X connect 64 1 67 0;
#X connect 65 0 64 0;
#X connect 66 0 69 1;
#X connect 67 0 69 1;
#X connect 68 0 63 1;
#X connect 69 0 48 0;
#X connect 70 0 63 0;
#X connect 71 0 72 0;
#X connect 72 0 69 0;
#X connect 73 0 74 0;
#X connect 74 0 75 0;
#X connect 75 0 76 0;
#X connect 76 0 77 0;
#X connect 77 0 49 0;
#X connect 78 0 0 0;
#X connect 79 0 0 0;
#X connect 80 0 0 0;
#X connect 81 0 0 0;
#X connect 82 0 0 0;
#X restore 262 273 pd waveshape;
#X obj 249 223 hsl 128 15 0 127 0 1 empty eosc1shape shape -2 -8 0
10 -262144 -1 -1 12700 1;
#X obj 74 288 phasor~;
#X obj 77 316 *~ 2;
#X obj 152 291 phasor~;
#X obj 152 319 *~ 2;
#X obj 78 347 -~ 1;
#X obj 152 350 -~ 1;
#X obj 83 381 clip~ 0 1;
#X obj 152 383 clip~ 0 1;
#X obj 89 412 +~;
#X obj 88 435 -~ 0.5;
#X obj 88 460 *~ 2;
#X obj 54 189 mtof;
#X obj 120 502 *~;
#X obj 193 500 *~;
#X obj 41 502 *~;
#X obj 272 511 *~;
#X obj 53 8 inlet;
#X obj 176 557 outlet~;
#X floatatom 69 221 8 2 20000 0 freq - -;
#X obj 177 532 *~ -1;
#X obj 390 22 inlet~;
#X obj 386 224 *~;
#X obj 100 247 +~;
#X obj 434 208 vsl 15 128 0 127 0 1 empty efreqmod FM_osc3 0 -9 0 10
-262130 -1 -1 0 1;
#X obj 386 287 *;
#X obj 434 346 / 127;
#X obj 272 361 -~ 0.5;
#X obj 270 405 *~ 1e+006;
#X obj 271 383 clip~ 0 1e-006;
#X obj 270 426 -~ 0.5;
#X obj 270 448 *~ 2;
#X obj 317 312 * -1;
#X obj 317 331 + 1;
#X obj 272 490 *~ -1;
#X obj 325 22 inlet;
#X obj 270 469 clip~ -1 1;
#X obj 194 172 loadbang;
#X obj 129 268 *~ -1;
#X text 53 35 pitch;
#X text 236 557 osc1;
#X obj 384 314 t f b;
#X obj 392 261 del 1;
#X msg 211 221 1;
#X text 329 39 shape;
#X text 393 42 2osc;
#X obj 470 22 inlet;
#X text 474 42 fm;
#X obj 301 97 * 127;
#X obj 449 129 * 127;
#X connect 0 0 16 1;
#X connect 0 1 14 1;
#X connect 0 2 15 1;
#X connect 0 3 17 1;
#X connect 0 4 33 0;
#X connect 1 0 0 0;
#X connect 2 0 3 0;
#X connect 2 0 28 0;
#X connect 3 0 6 0;
#X connect 4 0 5 0;
#X connect 5 0 7 0;
#X connect 6 0 8 0;
#X connect 6 0 16 0;
#X connect 7 0 9 0;
#X connect 7 0 15 0;
#X connect 8 0 10 0;
#X connect 9 0 10 1;
#X connect 10 0 11 0;
#X connect 11 0 12 0;
#X connect 12 0 14 0;
#X connect 13 0 26 0;
#X connect 13 0 20 0;
#X connect 14 0 21 0;
#X connect 15 0 21 0;
#X connect 16 0 21 0;
#X connect 17 0 21 0;
#X connect 18 0 13 0;
#X connect 20 0 24 0;
#X connect 21 0 19 0;
#X connect 22 0 23 0;
#X connect 23 0 24 1;
#X connect 24 0 2 0;
#X connect 24 0 39 0;
#X connect 25 0 27 0;
#X connect 26 0 23 1;
#X connect 27 0 42 0;
#X connect 28 0 30 0;
#X connect 29 0 31 0;
#X connect 30 0 29 0;
#X connect 31 0 32 0;
#X connect 32 0 37 0;
#X connect 33 0 34 0;
#X connect 34 0 28 1;
#X connect 35 0 17 0;
#X connect 36 0 49 0;
#X connect 37 0 35 0;
#X connect 38 0 44 0;
#X connect 39 0 4 0;
#X connect 42 0 26 1;
#X connect 42 1 43 0;
#X connect 43 0 26 0;
#X connect 44 0 4 1;
#X connect 44 0 2 1;
#X connect 47 0 50 0;
#X connect 49 0 1 0;
#X connect 50 0 25 0;
#X restore 292 -64 pd zdosc1;
#N canvas 504 173 450 300 pitch 0;
#X obj 78 71 t f b;
#X obj 140 115 hradio 15 1 1 5 empty eosc1octave scale 0 -8 0 10 -262144
-1 -1 3;
#X obj 140 136 sel 0 1 2 3 4;
#X obj 48 44 t f;
#X msg 170 202 0;
#X obj 63 97 + 0;
#X msg 200 162 24;
#X msg 185 182 12;
#X msg 155 221 -12;
#X msg 140 241 -24;
#X obj 22 102 del 1;
#X obj 48 17 inlet;
#X obj 63 243 outlet;
#X obj 151 13 inlet;
#X obj 151 59 i;
#X obj 178 60 + 1;
#X obj 151 79 % 5;
#X obj 151 39 bng 15 250 50 0 empty empty empty 17 7 0 10 -262144 -1
-1;
#X obj 220 11 loadbang;
#X msg 220 31 2;
#X obj 330 16 inlet;
#X obj 330 47 - 0.5;
#X obj 78 158 t f b;
#X obj 63 184 + 0;
#X obj 22 189 del 1;
#X obj 330 78 * 2;
#X text 344 31 fine;
#X text 74 35 pitch;
#X connect 0 0 5 1;
#X connect 0 1 10 0;
#X connect 1 0 2 0;
#X connect 2 0 9 0;
#X connect 2 1 8 0;
#X connect 2 2 4 0;
#X connect 2 3 7 0;
#X connect 2 4 6 0;
#X connect 3 0 5 0;
#X connect 4 0 0 0;
#X connect 5 0 23 0;
#X connect 6 0 0 0;
#X connect 7 0 0 0;
#X connect 8 0 0 0;
#X connect 9 0 0 0;
#X connect 10 0 5 0;
#X connect 11 0 3 0;
#X connect 13 0 17 0;
#X connect 14 0 15 0;
#X connect 14 0 16 0;
#X connect 15 0 14 1;
#X connect 16 0 1 0;
#X connect 17 0 14 0;
#X connect 18 0 19 0;
#X connect 19 0 14 0;
#X connect 20 0 21 0;
#X connect 21 0 25 0;
#X connect 22 0 23 1;
#X connect 22 1 24 0;
#X connect 23 0 12 0;
#X connect 24 0 23 0;
#X connect 25 0 22 0;
#X restore 292 -129 pd pitch;
#N canvas 642 35 531 592 zdosc2 0;
#N canvas 0 0 518 484 waveshape 0;
#X obj 108 23 hsl 128 15 0 127 0 0 empty empty empty -2 -8 0 10 -262144
-1 -1 12700 1;
#X floatatom 115 62 5 0 0 0 - - -;
#X obj 100 348 vsl 15 30 0 1 0 0 empty empty empty 0 -9 0 10 -262144
-1 -1 0 1;
#X obj 151 349 vsl 15 30 0 1 0 0 empty empty empty 0 -9 0 10 -262144
-1 -1 2900 1;
#X obj 210 339 vsl 15 30 0 1 0 0 empty empty empty 0 -9 0 10 -262144
-1 -1 2809 1;
#X obj 279 341 vsl 15 30 0 1 0 0 empty empty empty 0 -9 0 10 -262144
-1 -1 2900 1;
#X obj 43 93 >= 0;
#X obj 52 119 +;
#X obj 50 168 sel 1;
#X obj 53 223 *;
#X obj 52 143 == 2;
#X msg 33 190 1;
#X msg 74 189 0;
#X obj 55 251 * -1;
#X obj 115 90 >= 0;
#X obj 127 118 +;
#X obj 125 167 sel 1;
#X obj 128 141 == 2;
#X msg 108 189 1;
#X msg 149 188 0;
#X obj 111 280 *;
#X obj 180 205 abs;
#X obj 170 227 - 1;
#X obj 157 252 abs;
#X obj 113 41 t f b;
#X obj 263 117 +;
#X obj 261 166 sel 1;
#X obj 262 140 == 2;
#X msg 244 188 1;
#X msg 285 187 0;
#X obj 242 285 *;
#X obj 223 212 abs;
#X obj 223 236 - 1;
#X obj 222 261 abs;
#X obj 352 116 +;
#X obj 350 165 sel 1;
#X obj 350 140 == 2;
#X msg 333 187 1;
#X msg 374 186 0;
#X obj 381 87 <= 127;
#X obj 324 290 *;
#X obj 106 2 inlet;
#X obj 98 413 outlet;
#X obj 151 411 outlet;
#X obj 209 411 outlet;
#X obj 269 412 outlet;
#X obj 13 7 loadbang;
#X msg 17 31 0;
#X obj 411 237 vsl 15 30 0 1 0 0 empty empty empty 0 -9 0 10 -262144
-1 -1 2900 1;
#X obj 334 416 outlet;
#X obj 77 96 < 32;
#X obj 156 89 < 64;
#X obj 251 89 >= 32;
#X obj 340 88 >= 64;
#X obj 292 88 < 96;
#X obj 225 131 - 32;
#X obj 227 163 / 32;
#X obj 187 138 - 32;
#X obj 181 172 / 32;
#X obj 15 132 - 32;
#X obj 60 272 / 32;
#X obj 313 157 / 32;
#X obj 311 121 - 64;
#X obj 439 114 +;
#X obj 437 163 sel 1;
#X obj 437 138 == 2;
#X msg 420 185 1;
#X msg 461 184 0;
#X obj 468 85 <= 127;
#X obj 412 213 *;
#X obj 427 86 >= 96;
#X obj 398 119 - 96;
#X obj 400 155 / 31;
#X obj 411 275 - 1;
#X obj 410 295 * -1;
#X obj 409 317 * 9;
#X obj 408 337 + 1;
#X obj 407 359 / 20;
#X msg 156 0 0;
#X msg 188 1 32;
#X msg 220 2 64;
#X msg 251 3 96;
#X msg 281 3 127;
#X text 95 432 rev saw;
#X text 150 433 triangle;
#X text 218 433 saw;
#X text 275 435 square;
#X text 341 437 pulse;
#X connect 0 0 24 0;
#X connect 1 0 6 0;
#X connect 1 0 14 0;
#X connect 1 0 39 0;
#X connect 1 0 50 0;
#X connect 1 0 51 0;
#X connect 1 0 52 0;
#X connect 1 0 53 0;
#X connect 1 0 54 0;
#X connect 1 0 57 0;
#X connect 1 0 59 0;
#X connect 1 0 62 0;
#X connect 1 0 70 0;
#X connect 1 0 68 0;
#X connect 1 0 71 0;
#X connect 2 0 42 0;
#X connect 3 0 43 0;
#X connect 4 0 44 0;
#X connect 5 0 45 0;
#X connect 6 0 7 0;
#X connect 7 0 10 0;
#X connect 8 0 11 0;
#X connect 8 1 12 0;
#X connect 9 0 13 0;
#X connect 10 0 8 0;
#X connect 11 0 9 1;
#X connect 12 0 9 1;
#X connect 13 0 60 0;
#X connect 14 0 15 0;
#X connect 15 0 17 0;
#X connect 16 0 18 0;
#X connect 16 1 19 0;
#X connect 17 0 16 0;
#X connect 18 0 20 1;
#X connect 19 0 20 1;
#X connect 20 0 3 0;
#X connect 21 0 22 0;
#X connect 22 0 23 0;
#X connect 23 0 20 0;
#X connect 24 0 1 0;
#X connect 24 1 1 0;
#X connect 25 0 27 0;
#X connect 26 0 28 0;
#X connect 26 1 29 0;
#X connect 27 0 26 0;
#X connect 28 0 30 1;
#X connect 29 0 30 1;
#X connect 30 0 4 0;
#X connect 31 0 32 0;
#X connect 32 0 33 0;
#X connect 33 0 30 0;
#X connect 34 0 36 0;
#X connect 35 0 37 0;
#X connect 35 1 38 0;
#X connect 36 0 35 0;
#X connect 37 0 40 1;
#X connect 38 0 40 1;
#X connect 39 0 34 1;
#X connect 40 0 5 0;
#X connect 41 0 0 0;
#X connect 46 0 47 0;
#X connect 47 0 1 0;
#X connect 48 0 73 0;
#X connect 50 0 7 1;
#X connect 51 0 15 1;
#X connect 52 0 25 0;
#X connect 53 0 34 0;
#X connect 54 0 25 1;
#X connect 55 0 56 0;
#X connect 56 0 31 0;
#X connect 57 0 58 0;
#X connect 58 0 21 0;
#X connect 59 0 9 0;
#X connect 59 0 55 0;
#X connect 60 0 2 0;
#X connect 61 0 40 0;
#X connect 62 0 61 0;
#X connect 63 0 65 0;
#X connect 64 0 66 0;
#X connect 64 1 67 0;
#X connect 65 0 64 0;
#X connect 66 0 69 1;
#X connect 67 0 69 1;
#X connect 68 0 63 1;
#X connect 69 0 48 0;
#X connect 70 0 63 0;
#X connect 71 0 72 0;
#X connect 72 0 69 0;
#X connect 73 0 74 0;
#X connect 74 0 75 0;
#X connect 75 0 76 0;
#X connect 76 0 77 0;
#X connect 77 0 49 0;
#X connect 78 0 0 0;
#X connect 79 0 0 0;
#X connect 80 0 0 0;
#X connect 81 0 0 0;
#X connect 82 0 0 0;
#X restore 262 273 pd waveshape;
#X obj 249 223 hsl 128 15 0 127 0 1 empty eosc1shape shape -2 -8 0
10 -262144 -1 -1 12700 1;
#X obj 74 288 phasor~;
#X obj 77 316 *~ 2;
#X obj 152 291 phasor~;
#X obj 152 319 *~ 2;
#X obj 78 347 -~ 1;
#X obj 152 350 -~ 1;
#X obj 83 381 clip~ 0 1;
#X obj 152 383 clip~ 0 1;
#X obj 89 412 +~;
#X obj 88 435 -~ 0.5;
#X obj 88 460 *~ 2;
#X obj 54 189 mtof;
#X obj 120 502 *~;
#X obj 193 500 *~;
#X obj 41 502 *~;
#X obj 272 511 *~;
#X obj 53 8 inlet;
#X obj 176 557 outlet~;
#X floatatom 69 221 8 2 20000 0 freq - -;
#X obj 177 532 *~ -1;
#X obj 272 361 -~ 0.5;
#X obj 270 405 *~ 1e+006;
#X obj 271 383 clip~ 0 1e-006;
#X obj 270 426 -~ 0.5;
#X obj 270 448 *~ 2;
#X obj 317 312 * -1;
#X obj 317 331 + 1;
#X obj 272 490 *~ -1;
#X obj 325 22 inlet;
#X obj 270 469 clip~ -1 1;
#X obj 194 172 loadbang;
#X obj 129 268 *~ -1;
#X text 53 35 pitch;
#X text 236 557 osc1;
#X msg 211 221 1;
#X text 329 39 shape;
#X obj 69 246 sig~;
#X obj 281 126 * 127;
#X connect 0 0 16 1;
#X connect 0 1 14 1;
#X connect 0 2 15 1;
#X connect 0 3 17 1;
#X connect 0 4 27 0;
#X connect 1 0 0 0;
#X connect 2 0 3 0;
#X connect 2 0 22 0;
#X connect 3 0 6 0;
#X connect 4 0 5 0;
#X connect 5 0 7 0;
#X connect 6 0 8 0;
#X connect 6 0 16 0;
#X connect 7 0 9 0;
#X connect 7 0 15 0;
#X connect 8 0 10 0;
#X connect 9 0 10 1;
#X connect 10 0 11 0;
#X connect 11 0 12 0;
#X connect 12 0 14 0;
#X connect 13 0 20 0;
#X connect 14 0 21 0;
#X connect 15 0 21 0;
#X connect 16 0 21 0;
#X connect 17 0 21 0;
#X connect 18 0 13 0;
#X connect 20 0 38 0;
#X connect 21 0 19 0;
#X connect 22 0 24 0;
#X connect 23 0 25 0;
#X connect 24 0 23 0;
#X connect 25 0 26 0;
#X connect 26 0 31 0;
#X connect 27 0 28 0;
#X connect 28 0 22 1;
#X connect 29 0 17 0;
#X connect 30 0 39 0;
#X connect 31 0 29 0;
#X connect 32 0 36 0;
#X connect 33 0 4 0;
#X connect 36 0 4 1;
#X connect 36 0 2 1;
#X connect 38 0 2 0;
#X connect 38 0 33 0;
#X connect 39 0 1 0;
#X restore 326 -86 pd zdosc2;
#N canvas 504 173 450 300 pitch 0;
#X obj 78 71 t f b;
#X obj 140 115 hradio 15 1 1 5 empty eosc1octave scale 0 -8 0 10 -262144
-1 -1 3;
#X obj 140 136 sel 0 1 2 3 4;
#X obj 48 44 t f;
#X msg 170 202 0;
#X obj 63 97 + 0;
#X msg 200 162 24;
#X msg 185 182 12;
#X msg 155 221 -12;
#X msg 140 241 -24;
#X obj 22 102 del 1;
#X obj 48 17 inlet;
#X obj 63 243 outlet;
#X obj 151 13 inlet;
#X obj 151 59 i;
#X obj 178 60 + 1;
#X obj 151 79 % 5;
#X obj 151 39 bng 15 250 50 0 empty empty empty 17 7 0 10 -262144 -1
-1;
#X obj 220 11 loadbang;
#X msg 220 31 2;
#X obj 330 16 inlet;
#X obj 330 47 - 0.5;
#X obj 78 158 t f b;
#X obj 63 184 + 0;
#X obj 22 189 del 1;
#X text 344 31 fine;
#X text 74 35 pitch;
#X obj 330 78 * 4;
#X connect 0 0 5 1;
#X connect 0 1 10 0;
#X connect 1 0 2 0;
#X connect 2 0 9 0;
#X connect 2 1 8 0;
#X connect 2 2 4 0;
#X connect 2 3 7 0;
#X connect 2 4 6 0;
#X connect 3 0 5 0;
#X connect 4 0 0 0;
#X connect 5 0 23 0;
#X connect 6 0 0 0;
#X connect 7 0 0 0;
#X connect 8 0 0 0;
#X connect 9 0 0 0;
#X connect 10 0 5 0;
#X connect 11 0 3 0;
#X connect 13 0 17 0;
#X connect 14 0 15 0;
#X connect 14 0 16 0;
#X connect 15 0 14 1;
#X connect 16 0 1 0;
#X connect 17 0 14 0;
#X connect 18 0 19 0;
#X connect 19 0 14 0;
#X connect 20 0 21 0;
#X connect 21 0 27 0;
#X connect 22 0 23 1;
#X connect 22 1 24 0;
#X connect 23 0 12 0;
#X connect 24 0 23 0;
#X connect 27 0 22 0;
#X restore 326 -109 pd pitch;
#N canvas 0 0 450 300 mix 0;
#X obj 65 30 inlet~;
#X obj 191 29 inlet~;
#X obj 65 211 outlet~;
#X obj 306 29 inlet;
#X obj 66 103 *~;
#X obj 191 96 *~;
#X obj 66 170 +~;
#X obj 306 61 * -1;
#X obj 305 91 + 1;
#X connect 0 0 4 0;
#X connect 1 0 5 0;
#X connect 3 0 5 1;
#X connect 3 0 7 0;
#X connect 4 0 6 0;
#X connect 5 0 6 1;
#X connect 6 0 2 0;
#X connect 7 0 8 0;
#X connect 8 0 4 1;
#X restore 292 -37 pd mix;
#N canvas 0 0 450 300 lpf 0;
#X obj 349 16 inlet;
#X obj 106 15 inlet~;
#X obj 106 243 outlet~;
#X obj 129 76 lop~;
#X obj 130 101 lop~;
#X obj 129 128 lop~;
#X obj 130 157 lop~;
#X obj 268 174 mtof;
#X floatatom 269 204 8 0 0 0 - - -;
#X obj 349 47 * 174;
#X connect 0 0 9 0;
#X connect 1 0 3 0;
#X connect 3 0 4 0;
#X connect 4 0 5 0;
#X connect 5 0 6 0;
#X connect 6 0 2 0;
#X connect 7 0 8 0;
#X connect 7 0 3 1;
#X connect 7 0 4 1;
#X connect 7 0 5 1;
#X connect 7 0 6 1;
#X connect 9 0 7 0;
#X restore 292 -15 pd lpf;
#X obj 292 -173 + 1;
#X obj 292 -151 * 12;
#X obj 292 -195 * 5;
#X text 325 -203 pitch;
#X text 20 -205 osc2_fine;
#X text 57 51 osc1_oct;
#X text 119 51 osc2_oct;
#X text 433 -207 fine;
#X text 563 -206 osc1_waveshape;
#X text 703 -205 osc2_waveshape;
#X text 837 -207 mix;
#X text 972 -205 lfp_cutoff;
#X connect 2 0 3 0;
#X connect 3 0 5 0;
#X connect 4 0 6 0;
#X connect 5 0 9 0;
#X connect 6 0 5 0;
#X connect 6 1 5 1;
#X connect 9 0 10 0;
#X connect 10 0 251 2;
#X connect 15 0 16 0;
#X connect 16 0 20 0;
#X connect 17 0 16 0;
#X connect 17 1 16 1;
#X connect 20 0 21 0;
#X connect 25 0 15 0;
#X connect 26 0 17 0;
#X connect 28 0 29 0;
#X connect 29 0 33 0;
#X connect 30 0 29 0;
#X connect 30 1 29 1;
#X connect 33 0 34 0;
#X connect 34 0 256 0;
#X connect 41 0 42 0;
#X connect 42 0 46 0;
#X connect 43 0 42 0;
#X connect 43 1 42 1;
#X connect 46 0 47 0;
#X connect 47 0 249 2;
#X connect 51 0 28 0;
#X connect 52 0 30 0;
#X connect 53 0 41 0;
#X connect 55 0 43 0;
#X connect 57 0 58 0;
#X connect 58 0 62 0;
#X connect 59 0 58 0;
#X connect 59 1 58 1;
#X connect 62 0 63 0;
#X connect 63 0 248 1;
#X connect 68 0 69 0;
#X connect 69 0 73 0;
#X connect 70 0 69 0;
#X connect 70 1 69 1;
#X connect 73 0 74 0;
#X connect 74 0 250 1;
#X connect 79 0 80 0;
#X connect 80 0 84 0;
#X connect 81 0 80 0;
#X connect 81 1 80 1;
#X connect 84 0 85 0;
#X connect 85 0 252 2;
#X connect 90 0 91 0;
#X connect 91 0 95 0;
#X connect 92 0 91 0;
#X connect 92 1 91 1;
#X connect 95 0 96 0;
#X connect 96 0 253 1;
#X connect 100 0 57 0;
#X connect 101 0 59 0;
#X connect 102 0 68 0;
#X connect 103 0 70 0;
#X connect 104 0 79 0;
#X connect 105 0 81 0;
#X connect 106 0 90 0;
#X connect 107 0 92 0;
#X connect 110 0 111 0;
#X connect 111 0 115 0;
#X connect 112 0 111 0;
#X connect 112 1 111 1;
#X connect 115 0 116 0;
#X connect 121 0 122 0;
#X connect 122 0 126 0;
#X connect 123 0 122 0;
#X connect 123 1 122 1;
#X connect 126 0 127 0;
#X connect 132 0 133 0;
#X connect 133 0 137 0;
#X connect 134 0 133 0;
#X connect 134 1 133 1;
#X connect 137 0 138 0;
#X connect 145 0 146 0;
#X connect 146 0 150 0;
#X connect 147 0 146 0;
#X connect 147 1 146 1;
#X connect 150 0 151 0;
#X connect 157 0 158 0;
#X connect 158 0 162 0;
#X connect 159 0 158 0;
#X connect 159 1 158 1;
#X connect 162 0 163 0;
#X connect 168 0 169 0;
#X connect 169 0 173 0;
#X connect 170 0 169 0;
#X connect 170 1 169 1;
#X connect 173 0 174 0;
#X connect 179 0 180 0;
#X connect 180 0 184 0;
#X connect 181 0 180 0;
#X connect 181 1 180 1;
#X connect 184 0 185 0;
#X connect 190 0 191 0;
#X connect 191 0 195 0;
#X connect 192 0 191 0;
#X connect 192 1 191 1;
#X connect 195 0 196 0;
#X connect 200 0 110 0;
#X connect 201 0 112 0;
#X connect 202 0 121 0;
#X connect 203 0 123 0;
#X connect 204 0 132 0;
#X connect 205 0 134 0;
#X connect 206 0 145 0;
#X connect 207 0 147 0;
#X connect 208 0 157 0;
#X connect 209 0 159 0;
#X connect 210 0 168 0;
#X connect 211 0 170 0;
#X connect 212 0 179 0;
#X connect 213 0 181 0;
#X connect 214 0 190 0;
#X connect 215 0 192 0;
#X connect 217 0 218 0;
#X connect 218 0 220 0;
#X connect 218 1 221 0;
#X connect 218 2 219 0;
#X connect 218 3 226 0;
#X connect 218 4 229 0;
#X connect 218 5 229 0;
#X connect 219 0 249 1;
#X connect 220 0 222 0;
#X connect 221 0 222 0;
#X connect 226 0 251 1;
#X connect 229 0 230 0;
#X connect 234 0 235 0;
#X connect 235 0 236 0;
#X connect 236 0 233 0;
#X connect 236 0 233 1;
#X connect 248 0 252 0;
#X connect 249 0 248 0;
#X connect 249 0 251 0;
#X connect 250 0 248 2;
#X connect 250 0 252 1;
#X connect 251 0 250 0;
#X connect 252 0 253 0;
#X connect 253 0 233 0;
#X connect 253 0 233 1;
#X connect 254 0 255 0;
#X connect 255 0 249 0;
#X connect 256 0 254 0;
