#N canvas 581 41 1115 856 10;
#X obj 3 -476 cnv 15 1100 270 empty empty Primary_Controls 20 12 0
14 -1 -262144 0;
#X obj 11 -446 cnv 15 130 230 empty empty Speed 20 12 0 14 -261234
-66577 0;
#X obj 22 -388 ctlin 1;
#X obj 22 -364 * 128;
#X obj 78 -388 ctlin 2;
#X obj 22 -328 +;
#X obj 78 -365 t b i;
#X text 24 -405 MSB;
#X text 80 -405 LSB;
#X obj 22 -301 / 16383;
#X floatatom 22 -247 5 0 0 0 - - -;
#X text 59 -281 controller;
#X text 59 -268 output value;
#X text 59 -253 0 - 1;
#X obj 147 -446 cnv 15 130 230 empty empty Glide 20 12 0 14 -261682
-66577 0;
#X obj 156 -366 * 128;
#X obj 156 -330 +;
#X obj 212 -367 t b i;
#X text 158 -407 MSB;
#X text 214 -407 LSB;
#X obj 156 -303 / 16383;
#X floatatom 156 -249 5 0 0 0 - - -;
#X text 194 -282 controller;
#X text 194 -270 output value;
#X text 194 -256 0 - 1;
#X obj 156 -390 ctlin 70;
#X obj 212 -390 ctlin 71;
#X obj 283 -446 cnv 15 130 230 empty empty Pitch 20 12 0 14 -262130
-66577 0;
#X obj 292 -367 * 128;
#X obj 292 -331 +;
#X obj 348 -368 t b i;
#X text 294 -408 MSB;
#X text 350 -408 LSB;
#X obj 292 -304 / 16383;
#X floatatom 292 -250 5 0 0 0 - - -;
#X text 329 -283 controller;
#X text 329 -271 output value;
#X text 329 -257 0 - 1;
#X text 22 -425 (Bipolar CV);
#X text 294 -426 (1V/Oct CV);
#X obj 420 -446 cnv 15 130 230 empty empty Mix 20 12 0 14 -204786 -66577
0;
#X obj 428 -368 * 128;
#X obj 428 -332 +;
#X obj 484 -369 t b i;
#X text 430 -409 MSB;
#X text 486 -409 LSB;
#X obj 428 -305 / 16383;
#X floatatom 428 -251 5 0 0 0 - - -;
#X text 463 -285 controller;
#X text 463 -273 output value;
#X text 463 -259 0 - 1;
#X obj 292 -391 ctlin 15;
#X obj 348 -391 ctlin 16;
#X obj 428 -392 ctlin 8;
#X text 429 -427 (Bipolar CV);
#X obj 484 -392 ctlin 38;
#X obj 556 -446 cnv 15 130 230 empty empty Grain_Size 20 12 0 14 -204800
-66577 0;
#X obj 565 -365 * 128;
#X obj 565 -329 +;
#X obj 621 -366 t b i;
#X text 567 -406 MSB;
#X text 623 -406 LSB;
#X obj 565 -302 / 16383;
#X floatatom 565 -248 5 0 0 0 - - -;
#X text 602 -282 controller;
#X text 602 -270 output value;
#X text 602 -256 0 - 1;
#X obj 691 -446 cnv 15 130 230 empty empty Grain_Rate 20 12 0 14 -203904
-66577 0;
#X obj 702 -367 * 128;
#X obj 702 -331 +;
#X obj 758 -368 t b i;
#X text 704 -408 MSB;
#X text 760 -408 LSB;
#X obj 702 -304 / 16383;
#X floatatom 702 -250 5 0 0 0 - - -;
#X text 741 -284 controller;
#X text 741 -272 output value;
#X text 741 -258 0 - 1;
#X obj 827 -446 cnv 15 130 230 empty empty Loop_Start 20 12 0 14 -232576
-66577 0;
#X obj 837 -367 * 128;
#X obj 837 -331 +;
#X obj 893 -368 t b i;
#X text 839 -408 MSB;
#X text 895 -408 LSB;
#X obj 837 -304 / 16383;
#X floatatom 837 -250 5 0 0 0 - - -;
#X text 875 -284 controller;
#X text 875 -272 output value;
#X text 875 -258 0 - 1;
#X obj 963 -446 cnv 15 130 230 empty empty Loop_Size 20 12 0 14 -228856
-66577 0;
#X obj 974 -368 * 128;
#X obj 974 -332 +;
#X obj 1030 -369 t b i;
#X text 976 -409 MSB;
#X text 1032 -409 LSB;
#X obj 974 -305 / 16383;
#X floatatom 974 -251 5 0 0 0 - - -;
#X text 1015 -285 controller;
#X text 1015 -273 output value;
#X text 1015 -259 0 - 1;
#X obj 565 -389 ctlin 4;
#X obj 621 -389 ctlin 34;
#X obj 702 -391 ctlin 5;
#X obj 758 -391 ctlin 35;
#X obj 837 -391 ctlin 9;
#X obj 893 -391 ctlin 10;
#X obj 974 -392 ctlin 11;
#X obj 1030 -392 ctlin 12;
#X obj 4 78 cnv 15 1100 270 empty empty Secondary_Controls 20 12 0
14 -128992 -262144 0;
#X obj 12 108 cnv 15 130 230 empty empty Speed 20 12 0 14 -261234 -66577
0;
#X obj 23 190 * 128;
#X obj 23 226 +;
#X obj 79 189 t b i;
#X text 25 149 MSB;
#X text 81 149 LSB;
#X obj 23 253 / 16383;
#X floatatom 23 307 5 0 0 0 - - -;
#X text 60 273 controller;
#X text 60 286 output value;
#X text 60 301 0 - 1;
#X obj 148 108 cnv 15 130 230 empty empty Glide 20 12 0 14 -261682
-66577 0;
#X obj 157 188 * 128;
#X obj 157 224 +;
#X obj 213 187 t b i;
#X text 159 147 MSB;
#X text 215 147 LSB;
#X obj 157 251 / 16383;
#X floatatom 157 305 5 0 0 0 - - -;
#X text 195 272 controller;
#X text 195 284 output value;
#X text 195 298 0 - 1;
#X obj 284 108 cnv 15 130 230 empty empty Pitch 20 12 0 14 -262130
-66577 0;
#X obj 293 187 * 128;
#X obj 293 223 +;
#X obj 349 186 t b i;
#X text 295 146 MSB;
#X text 351 146 LSB;
#X obj 293 250 / 16383;
#X floatatom 293 304 5 0 0 0 - - -;
#X text 330 271 controller;
#X text 330 283 output value;
#X text 330 297 0 - 1;
#X text 23 129 (Bipolar CV);
#X text 295 128 (1V/Oct CV);
#X obj 421 108 cnv 15 130 230 empty empty Mix 20 12 0 14 -204786 -66577
0;
#X obj 429 186 * 128;
#X obj 429 222 +;
#X obj 485 185 t b i;
#X text 431 145 MSB;
#X text 487 145 LSB;
#X obj 429 249 / 16383;
#X floatatom 429 303 5 0 0 0 - - -;
#X text 464 269 controller;
#X text 464 281 output value;
#X text 464 295 0 - 1;
#X text 430 127 (Bipolar CV);
#X obj 557 108 cnv 15 130 230 empty empty Grain_Size 20 12 0 14 -204800
-66577 0;
#X obj 566 189 * 128;
#X obj 566 225 +;
#X obj 622 188 t b i;
#X text 568 148 MSB;
#X text 624 148 LSB;
#X obj 566 252 / 16383;
#X floatatom 566 306 5 0 0 0 - - -;
#X text 603 272 controller;
#X text 603 284 output value;
#X text 603 298 0 - 1;
#X obj 692 108 cnv 15 130 230 empty empty Grain_Rate 20 12 0 14 -203904
-66577 0;
#X obj 703 187 * 128;
#X obj 703 223 +;
#X obj 759 186 t b i;
#X text 705 146 MSB;
#X text 761 146 LSB;
#X obj 703 250 / 16383;
#X floatatom 703 304 5 0 0 0 - - -;
#X text 742 270 controller;
#X text 742 282 output value;
#X text 742 296 0 - 1;
#X obj 828 108 cnv 15 130 230 empty empty Loop_Start 20 12 0 14 -232576
-66577 0;
#X obj 838 187 * 128;
#X obj 838 223 +;
#X obj 894 186 t b i;
#X text 840 146 MSB;
#X text 896 146 LSB;
#X obj 838 250 / 16383;
#X floatatom 838 304 5 0 0 0 - - -;
#X text 876 270 controller;
#X text 876 282 output value;
#X text 876 296 0 - 1;
#X obj 964 108 cnv 15 130 230 empty empty Loop_Size 20 12 0 14 -228856
-66577 0;
#X obj 975 186 * 128;
#X obj 975 222 +;
#X obj 1031 185 t b i;
#X text 977 145 MSB;
#X text 1033 145 LSB;
#X obj 975 249 / 16383;
#X floatatom 975 303 5 0 0 0 - - -;
#X text 1016 269 controller;
#X text 1016 281 output value;
#X text 1016 295 0 - 1;
#X obj 23 166 ctlin 40;
#X obj 79 166 ctlin 41;
#X obj 157 164 ctlin 42;
#X obj 213 164 ctlin 43;
#X obj 293 163 ctlin 44;
#X obj 349 163 ctlin 45;
#X obj 429 162 ctlin 46;
#X obj 485 162 ctlin 47;
#X obj 566 165 ctlin 48;
#X obj 622 165 ctlin 49;
#X obj 703 163 ctlin 50;
#X obj 759 163 ctlin 51;
#X obj 838 163 ctlin 52;
#X obj 894 163 ctlin 53;
#X obj 975 162 ctlin 54;
#X obj 1031 162 ctlin 55;
#X obj 4 -181 cnv 15 250 230 empty empty Utility_CC 20 12 0 14 -228856
-66577 0;
#X obj 12 -154 ctlin 23;
#X obj 12 -130 sel 1 2 3 12 23 24;
#X obj 74 25 bng 15 250 50 0 empty empty empty 17 7 0 10 -262144 -1
-1;
#X msg 12 -104 1;
#X msg 18 -83 0;
#X obj 12 25 tgl 15 0 empty empty empty 17 7 0 10 -262144 -1 -1 0 1
;
#X text 18 -4 Freeze;
#X text 18 8 toggle;
#X text 77 3 Next;
#X obj 126 25 bng 15 250 50 0 empty empty empty 17 7 0 10 -262144 -1
-1;
#X text 127 3 Recall;
#X obj 129 -130 cnv 15 125 100 empty empty REQUIRED 20 12 0 14 -162280
-262144 0;
#X obj 137 -92 bng 15 250 50 0 empty empty empty 17 7 0 10 -262144
-1 -1;
#X msg 137 -69 [ \; pd quit;
#X text 159 -94 from Patch.;
#X text 159 -109 Do NOT remove;
#X obj 537 40 dac~;
#X obj 583 -51 loadbang;
#X obj 583 -28 delay 100;
#X msg 583 -4 \; pd dsp 1;
#X obj 819 -181 cnv 15 250 230 empty empty empty 20 12 0 14 -228856
-66577 0;
#X text 823 -180 Qu-Bit Electronix;
#X text 823 -161 Pd-Vanilla Template;
#X text 825 -21 contact@qubitelectronix.com;
#X text 848 -116 Andrew Ikenberry;
#X text 848 -128 Paul Batchelor;
#X text 824 -140 By: Jason H. J Lim;
#X text 824 -35 Send your Pd instruments to:;
#X text 825 10 To be featured on:;
#X text 826 25 www.qubitelectronix.com;
#X text 568 39 Audio Output;
#N canvas 929 272 655 358 switch 0;
#X obj 96 29 r mix;
#X obj 158 29 r tune1;
#X obj 221 30 r tune2;
#X obj 285 30 r lpf;
#X obj 348 28 r attack;
#X obj 414 28 r decay;
#N canvas 534 285 450 300 change 0;
#X obj 73 21 inlet;
#X obj 73 71 i;
#X obj 73 117 change;
#X obj 73 145 outlet;
#X obj 73 45 * 100;
#X obj 73 93 / 100;
#X connect 0 0 4 0;
#X connect 1 0 5 0;
#X connect 2 0 3 0;
#X connect 4 0 1 0;
#X connect 5 0 2 0;
#X restore 96 51 pd change;
#N canvas 0 0 450 300 (subpatch) 0;
#X array drum1 10 float 3;
#A 0 0 0.45 0 0 0.49 0.88 0.16 0.881 0 0;
#X coords 0 1 10 0 100 70 1 0 0;
#X restore 424 156 graph;
#N canvas 0 0 450 300 (subpatch) 0;
#X array drum2 10 float 3;
#A 0 0 0.835 0.523 0.543 0.225 0.455 0.579 0.854433 0 0;
#X coords 0 1 10 0 100 70 1 0 0;
#X restore 538 156 graph;
#N canvas 0 0 450 300 (subpatch) 0;
#X array drum3 10 float 3;
#A 0 0 0.325 0.799 0.701 0.758 0.513 0.454 0.835428 0 0;
#X coords 0 1 10 0 100 70 1 0 0;
#X restore 309 249 graph;
#N canvas 0 0 450 300 (subpatch) 0;
#X array drum4 10 float 3;
#A 0 0 0.11243 0.169572 0.226715 0.312429 0.412429 0.512429 0.583857
0 0;
#X coords 0 1 10 0 100 70 1 0 0;
#X restore 424 249 graph;
#N canvas 0 0 450 300 (subpatch) 0;
#X array drum5 10 float 3;
#A 0 0 0.816 0.656 0.792 0.793 0.773 0.83 0.857144 0 0;
#X coords 0 1 10 0 100 70 1 0 0;
#X restore 540 248 graph;
#X obj 96 152 tabwrite;
#X obj 96 74 pack f1 1;
#X obj 18 29 inlet;
#X obj 18 87 i;
#X obj 158 74 pack f1 2;
#X obj 221 73 pack f1 3;
#X obj 285 74 pack f1 4;
#X obj 348 72 pack f1 5;
#X obj 414 74 pack f1 6;
#X obj 103 272 tabread;
#X obj 480 73 pack f1 7;
#X obj 480 27 r lvl;
#X obj 18 107 + 1;
#X msg 18 148 set drum\$1;
#X obj 171 153 unpack;
#X obj 88 334 s;
#X msg 157 272 symbol param\$1;
#X floatatom 46 107 5 0 0 0 - - -;
#X msg 103 202 1;
#X obj 18 127 change;
#N canvas 848 663 450 300 qckrd 0;
#X obj 97 118 i;
#X obj 125 118 + 1;
#X obj 97 57 tgl 15 0 empty empty empty 17 7 0 10 -262144 -1 -1 0 1
;
#X obj 58 76 sel 0;
#X msg 154 96 0;
#X msg 58 96 -1;
#X obj 154 76 sel 11;
#X obj 97 28 inlet;
#X obj 97 155 outlet;
#X obj 97 76 metro 20;
#X connect 0 0 1 0;
#X connect 0 0 6 0;
#X connect 0 0 8 0;
#X connect 1 0 0 1;
#X connect 2 0 3 0;
#X connect 2 0 9 0;
#X connect 3 0 5 0;
#X connect 4 0 2 0;
#X connect 5 0 0 0;
#X connect 6 0 4 0;
#X connect 7 0 2 0;
#X connect 9 0 0 0;
#X restore 103 223 pd qckrd;
#X floatatom 204 199 5 0 0 0 - - -;
#X floatatom 36 301 5 0 0 0 - - -;
#N canvas 534 285 450 300 change 0;
#X obj 73 21 inlet;
#X obj 73 71 i;
#X obj 73 117 change;
#X obj 73 145 outlet;
#X obj 73 45 * 100;
#X obj 73 93 / 100;
#X connect 0 0 4 0;
#X connect 1 0 5 0;
#X connect 2 0 3 0;
#X connect 4 0 1 0;
#X connect 5 0 2 0;
#X restore 158 51 pd change;
#N canvas 534 285 450 300 change 0;
#X obj 73 21 inlet;
#X obj 73 71 i;
#X obj 73 117 change;
#X obj 73 145 outlet;
#X obj 73 45 * 100;
#X obj 73 93 / 100;
#X connect 0 0 4 0;
#X connect 1 0 5 0;
#X connect 2 0 3 0;
#X connect 4 0 1 0;
#X connect 5 0 2 0;
#X restore 220 51 pd change;
#N canvas 534 285 450 300 change 0;
#X obj 73 21 inlet;
#X obj 73 71 i;
#X obj 73 117 change;
#X obj 73 145 outlet;
#X obj 73 45 * 100;
#X obj 73 93 / 100;
#X connect 0 0 4 0;
#X connect 1 0 5 0;
#X connect 2 0 3 0;
#X connect 4 0 1 0;
#X connect 5 0 2 0;
#X restore 285 52 pd change;
#N canvas 534 285 450 300 change 0;
#X obj 73 21 inlet;
#X obj 73 71 i;
#X obj 73 117 change;
#X obj 73 145 outlet;
#X obj 73 45 * 100;
#X obj 73 93 / 100;
#X connect 0 0 4 0;
#X connect 1 0 5 0;
#X connect 2 0 3 0;
#X connect 4 0 1 0;
#X connect 5 0 2 0;
#X restore 348 50 pd change;
#N canvas 534 285 450 300 change 0;
#X obj 73 21 inlet;
#X obj 73 71 i;
#X obj 73 117 change;
#X obj 73 145 outlet;
#X obj 73 45 * 100;
#X obj 73 93 / 100;
#X connect 0 0 4 0;
#X connect 1 0 5 0;
#X connect 2 0 3 0;
#X connect 4 0 1 0;
#X connect 5 0 2 0;
#X restore 413 51 pd change;
#N canvas 534 285 450 300 change 0;
#X obj 73 21 inlet;
#X obj 73 71 i;
#X obj 73 117 change;
#X obj 73 145 outlet;
#X obj 73 45 * 100;
#X obj 73 93 / 100;
#X connect 0 0 4 0;
#X connect 1 0 5 0;
#X connect 2 0 3 0;
#X connect 4 0 1 0;
#X connect 5 0 2 0;
#X restore 480 49 pd change;
#X obj 62 10 loadbang;
#X msg 62 30 0;
#X obj 18 49 * 4;
#X obj 18 68 min 3;
#X obj 83 178 del 20;
#X obj 88 305 f;
#X obj 157 298 t b;
#X connect 0 0 6 0;
#X connect 1 0 35 0;
#X connect 2 0 36 0;
#X connect 3 0 37 0;
#X connect 4 0 38 0;
#X connect 5 0 39 0;
#X connect 6 0 13 0;
#X connect 13 0 12 0;
#X connect 13 0 26 0;
#X connect 14 0 43 0;
#X connect 15 0 24 0;
#X connect 16 0 12 0;
#X connect 16 0 26 0;
#X connect 17 0 12 0;
#X connect 17 0 26 0;
#X connect 18 0 12 0;
#X connect 18 0 26 0;
#X connect 19 0 12 0;
#X connect 19 0 26 0;
#X connect 20 0 12 0;
#X connect 20 0 26 0;
#X connect 21 0 34 0;
#X connect 21 0 46 1;
#X connect 22 0 12 0;
#X connect 22 0 26 0;
#X connect 23 0 40 0;
#X connect 24 0 31 0;
#X connect 25 0 12 0;
#X connect 25 0 21 0;
#X connect 26 1 28 0;
#X connect 26 1 21 0;
#X connect 26 1 33 0;
#X connect 28 0 27 1;
#X connect 28 0 47 0;
#X connect 30 0 32 0;
#X connect 31 0 29 0;
#X connect 31 0 25 0;
#X connect 31 0 45 0;
#X connect 32 0 21 0;
#X connect 32 0 28 0;
#X connect 35 0 16 0;
#X connect 36 0 17 0;
#X connect 37 0 18 0;
#X connect 38 0 19 0;
#X connect 39 0 20 0;
#X connect 40 0 22 0;
#X connect 41 0 42 0;
#X connect 42 0 43 0;
#X connect 43 0 44 0;
#X connect 44 0 15 0;
#X connect 45 0 30 0;
#X connect 46 0 27 0;
#X connect 47 0 46 0;
#X restore 291 -179 pd switch;
#X obj 22 -201 s mix;
#X obj 564 -185 s tune1;
#X obj 701 -186 s tune2;
#X obj 156 -201 s lpf;
#X obj 837 -201 s attack;
#X obj 974 -201 s decay;
#X obj 428 -181 s lvl;
#N canvas 179 323 732 473 drdrum 0;
#X obj 160 405 outlet~;
#X obj 156 38 inlet;
#X obj 160 355 *~;
#X obj 232 194 noise~;
#X obj 278 193 line;
#X obj 158 307 lop~;
#X obj 197 65 del 3;
#X obj 158 330 lop~;
#X obj 158 287 +~;
#X obj 158 243 clip~ -1 1;
#X obj 158 220 *~ 1000;
#X obj 157 196 osc~;
#X obj 158 265 *~ 0.2;
#X obj 276 302 pack 0 f1;
#X obj 214 324 line~;
#X obj 156 174 line~;
#X obj 587 84 + 5;
#X obj 587 63 * 495;
#X obj 232 263 *~ 0.8;
#X obj 270 220 * -1;
#X obj 270 241 + 1;
#X text 155 16 trig;
#X text 230 19 mix;
#X text 514 17 attack;
#X text 586 15 decay;
#X text 441 19 lpf;
#X text 298 17 tune1;
#X text 370 18 tune2;
#X obj 109 144 pack f1 f2;
#X obj 510 84 + 5;
#X obj 510 63 * 195;
#X obj 183 123 + 50;
#X obj 183 144 pack f1 f2;
#X obj 214 301 pack 1 f1;
#X obj 278 171 pack f1 f2;
#X obj 278 125 * 4500;
#X obj 278 148 + 500;
#X obj 349 171 pack 100 f1;
#X floatatom 391 320 5 0 0 0 - - -;
#X floatatom 437 321 5 0 0 0 - - -;
#X floatatom 478 320 5 0 0 0 - - -;
#X floatatom 519 320 5 0 0 0 - - -;
#X floatatom 566 321 5 0 0 0 - - -;
#X floatatom 606 321 5 0 0 0 - - -;
#X obj 224 38 r param1;
#X obj 297 38 r param2;
#X obj 365 37 r param3;
#X obj 441 38 r param4;
#X obj 511 37 r param5;
#X obj 588 39 r param6;
#X obj 653 40 r param7;
#X obj 159 379 *~;
#X floatatom 646 320 5 0 0 0 - - -;
#X text 655 18 level;
#X obj 109 103 * 900;
#X obj 109 124 + 100;
#X obj 183 101 * 450;
#X connect 1 0 6 0;
#X connect 1 0 28 0;
#X connect 1 0 33 0;
#X connect 1 0 34 0;
#X connect 2 0 51 0;
#X connect 3 0 18 0;
#X connect 4 0 5 1;
#X connect 4 0 7 1;
#X connect 5 0 7 0;
#X connect 6 0 32 0;
#X connect 6 0 13 0;
#X connect 6 0 37 0;
#X connect 7 0 2 0;
#X connect 8 0 5 0;
#X connect 9 0 12 0;
#X connect 10 0 9 0;
#X connect 11 0 10 0;
#X connect 12 0 8 0;
#X connect 13 0 14 0;
#X connect 14 0 2 1;
#X connect 15 0 11 0;
#X connect 16 0 13 1;
#X connect 16 0 32 1;
#X connect 16 0 37 1;
#X connect 16 0 43 0;
#X connect 17 0 16 0;
#X connect 18 0 8 1;
#X connect 19 0 20 0;
#X connect 20 0 18 1;
#X connect 28 0 15 0;
#X connect 29 0 28 1;
#X connect 29 0 6 1;
#X connect 29 0 33 1;
#X connect 29 0 34 1;
#X connect 29 0 42 0;
#X connect 30 0 29 0;
#X connect 31 0 32 0;
#X connect 31 0 40 0;
#X connect 32 0 15 0;
#X connect 33 0 14 0;
#X connect 34 0 4 0;
#X connect 35 0 36 0;
#X connect 36 0 34 0;
#X connect 36 0 41 0;
#X connect 37 0 4 0;
#X connect 44 0 19 0;
#X connect 44 0 12 1;
#X connect 44 0 38 0;
#X connect 45 0 54 0;
#X connect 46 0 56 0;
#X connect 47 0 35 0;
#X connect 48 0 30 0;
#X connect 49 0 17 0;
#X connect 50 0 51 1;
#X connect 50 0 52 0;
#X connect 51 0 0 0;
#X connect 54 0 55 0;
#X connect 55 0 28 0;
#X connect 55 0 39 0;
#X connect 56 0 31 0;
#X restore 510 4 pd drdrum;
#X text 295 -202 drum_1-5_select;
#X text 436 -201 level;
#X text 573 -204 init_pitch;
#X text 116 47 trigger;
#X text 706 -204 end_pitch;
#X text 891 -201 attack_time;
#X text 1021 -201 decay_time;
#N canvas 1214 75 450 395 random 0;
#X obj 81 26 inlet;
#X obj 81 267 s mix;
#X obj 119 267 s tune1;
#X obj 168 268 s tune2;
#X obj 221 268 s lpf;
#X obj 259 267 s attack;
#X obj 315 267 s decay;
#X obj 81 136 random 1000;
#X obj 81 158 / 1000;
#X msg 81 45 1;
#N canvas 848 663 450 300 qckrd 0;
#X obj 97 118 i;
#X obj 125 118 + 1;
#X obj 97 57 tgl 15 0 empty empty empty 17 7 0 10 -262144 -1 -1 0 1
;
#X obj 58 76 sel 0;
#X msg 154 96 0;
#X msg 58 96 -1;
#X obj 154 76 sel 11;
#X obj 97 28 inlet;
#X obj 97 155 outlet;
#X obj 97 76 metro 20;
#X connect 0 0 1 0;
#X connect 0 0 6 0;
#X connect 0 0 8 0;
#X connect 1 0 0 1;
#X connect 2 0 3 0;
#X connect 2 0 9 0;
#X connect 3 0 5 0;
#X connect 4 0 2 0;
#X connect 5 0 0 0;
#X connect 6 0 4 0;
#X connect 7 0 2 0;
#X connect 9 0 0 0;
#X restore 81 66 pd qckrd;
#X obj 219 137 random 200;
#X obj 219 159 / 200;
#X obj 258 179 random 100;
#X obj 258 201 / 100;
#X obj 81 94 sel 1 2 3 4 5 6;
#X obj 168 220 random 30;
#X obj 168 242 / 30;
#X obj 120 178 random 50;
#X obj 120 200 / 50;
#X obj 315 223 random 500;
#X obj 315 245 / 500;
#X connect 0 0 9 0;
#X connect 7 0 8 0;
#X connect 8 0 1 0;
#X connect 9 0 10 0;
#X connect 10 0 15 0;
#X connect 11 0 12 0;
#X connect 12 0 4 0;
#X connect 13 0 14 0;
#X connect 14 0 5 0;
#X connect 15 0 7 0;
#X connect 15 1 18 0;
#X connect 15 2 16 0;
#X connect 15 3 11 0;
#X connect 15 4 13 0;
#X connect 15 5 20 0;
#X connect 16 0 17 0;
#X connect 17 0 3 0;
#X connect 18 0 19 0;
#X connect 19 0 2 0;
#X connect 20 0 21 0;
#X connect 21 0 6 0;
#X restore 321 -6 pd random;
#X text 67 47 rand;
#X text 323 -111 created by: Maciej Odrowaz Sypniewski;
#X text 317 -99 muffwiggler: maceq687;
#X text 341 -87 patches: github.com/maceq687/nebulae;
#X text 58 -202 noise/osc_mix;
#X text 193 -203 lpf;
#X connect 2 0 3 0;
#X connect 3 0 5 0;
#X connect 4 0 6 0;
#X connect 5 0 9 0;
#X connect 6 0 5 0;
#X connect 6 1 5 1;
#X connect 9 0 10 0;
#X connect 10 0 249 0;
#X connect 15 0 16 0;
#X connect 16 0 20 0;
#X connect 17 0 16 0;
#X connect 17 1 16 1;
#X connect 20 0 21 0;
#X connect 21 0 252 0;
#X connect 25 0 15 0;
#X connect 26 0 17 0;
#X connect 28 0 29 0;
#X connect 29 0 33 0;
#X connect 30 0 29 0;
#X connect 30 1 29 1;
#X connect 33 0 34 0;
#X connect 34 0 248 0;
#X connect 41 0 42 0;
#X connect 42 0 46 0;
#X connect 43 0 42 0;
#X connect 43 1 42 1;
#X connect 46 0 47 0;
#X connect 47 0 255 0;
#X connect 51 0 28 0;
#X connect 52 0 30 0;
#X connect 53 0 41 0;
#X connect 55 0 43 0;
#X connect 57 0 58 0;
#X connect 58 0 62 0;
#X connect 59 0 58 0;
#X connect 59 1 58 1;
#X connect 62 0 63 0;
#X connect 63 0 250 0;
#X connect 68 0 69 0;
#X connect 69 0 73 0;
#X connect 70 0 69 0;
#X connect 70 1 69 1;
#X connect 73 0 74 0;
#X connect 74 0 251 0;
#X connect 79 0 80 0;
#X connect 80 0 84 0;
#X connect 81 0 80 0;
#X connect 81 1 80 1;
#X connect 84 0 85 0;
#X connect 85 0 253 0;
#X connect 90 0 91 0;
#X connect 91 0 95 0;
#X connect 92 0 91 0;
#X connect 92 1 91 1;
#X connect 95 0 96 0;
#X connect 96 0 254 0;
#X connect 100 0 57 0;
#X connect 101 0 59 0;
#X connect 102 0 68 0;
#X connect 103 0 70 0;
#X connect 104 0 79 0;
#X connect 105 0 81 0;
#X connect 106 0 90 0;
#X connect 107 0 92 0;
#X connect 110 0 111 0;
#X connect 111 0 115 0;
#X connect 112 0 111 0;
#X connect 112 1 111 1;
#X connect 115 0 116 0;
#X connect 121 0 122 0;
#X connect 122 0 126 0;
#X connect 123 0 122 0;
#X connect 123 1 122 1;
#X connect 126 0 127 0;
#X connect 132 0 133 0;
#X connect 133 0 137 0;
#X connect 134 0 133 0;
#X connect 134 1 133 1;
#X connect 137 0 138 0;
#X connect 145 0 146 0;
#X connect 146 0 150 0;
#X connect 147 0 146 0;
#X connect 147 1 146 1;
#X connect 150 0 151 0;
#X connect 157 0 158 0;
#X connect 158 0 162 0;
#X connect 159 0 158 0;
#X connect 159 1 158 1;
#X connect 162 0 163 0;
#X connect 168 0 169 0;
#X connect 169 0 173 0;
#X connect 170 0 169 0;
#X connect 170 1 169 1;
#X connect 173 0 174 0;
#X connect 179 0 180 0;
#X connect 180 0 184 0;
#X connect 181 0 180 0;
#X connect 181 1 180 1;
#X connect 184 0 185 0;
#X connect 190 0 191 0;
#X connect 191 0 195 0;
#X connect 192 0 191 0;
#X connect 192 1 191 1;
#X connect 195 0 196 0;
#X connect 200 0 110 0;
#X connect 201 0 112 0;
#X connect 202 0 121 0;
#X connect 203 0 123 0;
#X connect 204 0 132 0;
#X connect 205 0 134 0;
#X connect 206 0 145 0;
#X connect 207 0 147 0;
#X connect 208 0 157 0;
#X connect 209 0 159 0;
#X connect 210 0 168 0;
#X connect 211 0 170 0;
#X connect 212 0 179 0;
#X connect 213 0 181 0;
#X connect 214 0 190 0;
#X connect 215 0 192 0;
#X connect 217 0 218 0;
#X connect 218 0 220 0;
#X connect 218 1 221 0;
#X connect 218 2 219 0;
#X connect 218 3 226 0;
#X connect 218 4 229 0;
#X connect 218 5 229 0;
#X connect 219 0 264 0;
#X connect 220 0 222 0;
#X connect 221 0 222 0;
#X connect 226 0 256 0;
#X connect 229 0 230 0;
#X connect 234 0 235 0;
#X connect 235 0 236 0;
#X connect 236 0 233 0;
#X connect 236 0 233 1;
#X connect 256 0 233 0;
#X connect 256 0 233 1;
